<svg xmlns="http://www.w3.org/2000/svg" xmlns:xlink="http://www.w3.org/1999/xlink" version="1.1" width="150" height="150" viewBox="0 0 150 150" xml:space="preserve">
<desc>Created with Fabric.js 3.5.0</desc>
<defs>
</defs>
<rect x="0" y="0" width="100%" height="100%" fill="rgba(255,255,255,0)"/>
<g transform="matrix(5.2245 0 0 5.2245 500.0013 500.0013)" id="783640">
<path style="stroke: none; stroke-width: 1; stroke-dasharray: none; stroke-linecap: butt; stroke-dashoffset: 0; stroke-linejoin: miter; stroke-miterlimit: 4; is-custom-font: none; font-file-url: none; fill: rgb(0,153,255); fill-rule: nonzero; opacity: 1;" vector-effect="non-scaling-stroke" transform=" translate(-67.5, -67.5)" d="M 67.5 135 C 104.779 135 135 104.779 135 67.5 C 135 30.2208 104.779 0 67.5 0 C 30.2208 0 0 30.2208 0 67.5 C 0 104.779 30.2208 135 67.5 135 Z" stroke-linecap="round"/>
</g>
<g transform="matrix(13.7438 0 0 13.7438 500.0004 500.0004)" id="27996">
<g style="" vector-effect="non-scaling-stroke">
		<g transform="matrix(1 0 0 1 -13 0.5)">
<path style="stroke: none; stroke-width: 1; stroke-dasharray: none; stroke-linecap: butt; stroke-dashoffset: 0; stroke-linejoin: miter; stroke-miterlimit: 4; is-custom-font: none; font-file-url: none; fill: rgb(136,153,166); fill-rule: nonzero; opacity: 1;" transform=" translate(-5, -18.5)" d="M 5 36 c -1.104 0 -2 -0.896 -2 -2 V 3 c 0 -1.104 0.896 -2 2 -2 s 2 0.896 2 2 v 31 c 0 1.104 -0.896 2 -2 2 z" stroke-linecap="round"/>
</g>
		<g transform="matrix(1 0 0 1 -13 -0.25)">
<path style="stroke: none; stroke-width: 1; stroke-dasharray: none; stroke-linecap: butt; stroke-dashoffset: 0; stroke-linejoin: miter; stroke-miterlimit: 4; is-custom-font: none; font-file-url: none; fill: rgb(170,184,194); fill-rule: nonzero; opacity: 1;" transform=" translate(-5, -17.75)" d="M 5 1 c -1.105 0 -2 0.895 -2 2 v 31 c 0 0.276 0.224 0.5 0.5 0.5 s 0.5 -0.224 0.5 -0.5 V 4.414 C 4 3.633 4.633 3 5.414 3 H 7 c 0 -1.105 -0.895 -2 -2 -2 z" stroke-linecap="round"/>
</g>
		<g transform="matrix(1 0 0 1 -13 0.5)">
<path style="stroke: none; stroke-width: 1; stroke-dasharray: none; stroke-linecap: butt; stroke-dashoffset: 0; stroke-linejoin: miter; stroke-miterlimit: 4; is-custom-font: none; font-file-url: none; fill: rgb(136,153,166); fill-rule: nonzero; opacity: 1;" transform=" translate(-5, -18.5)" d="M 5 36 c -1.104 0 -2 -0.896 -2 -2 V 3 c 0 -1.104 0.896 -2 2 -2 s 2 0.896 2 2 v 31 c 0 1.104 -0.896 2 -2 2 z" stroke-linecap="round"/>
</g>
		<g transform="matrix(1 0 0 1 -13 -0.25)">
<path style="stroke: none; stroke-width: 1; stroke-dasharray: none; stroke-linecap: butt; stroke-dashoffset: 0; stroke-linejoin: miter; stroke-miterlimit: 4; is-custom-font: none; font-file-url: none; fill: rgb(170,184,194); fill-rule: nonzero; opacity: 1;" transform=" translate(-5, -17.75)" d="M 5 1 c -1.105 0 -2 0.895 -2 2 v 31 c 0 0.276 0.224 0.5 0.5 0.5 s 0.5 -0.224 0.5 -0.5 V 4.414 C 4 3.633 4.633 3 5.414 3 H 7 c 0 -1.105 -0.895 -2 -2 -2 z" stroke-linecap="round"/>
</g>
		<g transform="matrix(1 0 0 1 1.5 -4.513)">
<path style="stroke: none; stroke-width: 1; stroke-dasharray: none; stroke-linecap: butt; stroke-dashoffset: 0; stroke-linejoin: miter; stroke-miterlimit: 4; is-custom-font: none; font-file-url: none; fill: rgb(49,55,61); fill-rule: nonzero; opacity: 1;" transform=" translate(-19.5, -13.487)" d="M 32.396 3.082 C 30.732 2.363 28.959 2.006 27 1.974 l -1.375 0.38 L 21 3 l -1 -0.128 c -0.237 0.051 -0.476 0.099 -0.711 0.15 c -2.169 0.469 -4.23 0.894 -6.289 0.982 L 12 5 L 6 4 v 19 h 6 l 1 2 h 0.077 c 2.244 -0.096 4.472 -0.556 6.633 -1.022 l 0.29 -0.061 l 0.646 -0.645 l 5.438 -0.708 l 0.916 0.41 c 1.68 0.032 3.193 0.335 4.604 0.944 c 0.309 0.133 0.665 0.103 0.945 -0.082 c 0.282 -0.186 0.451 -0.499 0.451 -0.836 V 4 c 0 -0.399 -0.237 -0.76 -0.604 -0.918 z" stroke-linecap="round"/>
</g>
		<g transform="matrix(1 0 0 1 1.5 -4.5195)">
<path style="stroke: none; stroke-width: 1; stroke-dasharray: none; stroke-linecap: butt; stroke-dashoffset: 0; stroke-linejoin: miter; stroke-miterlimit: 4; is-custom-font: none; font-file-url: none; fill: rgb(225,232,237); fill-rule: nonzero; opacity: 1;" transform=" translate(-19.5, -13.4805)" d="M 13 4.004 c -0.239 0.01 -0.478 0.035 -0.717 0.035 c -1.797 0 -3.396 -0.313 -4.887 -0.957 c -0.308 -0.135 -0.665 -0.103 -0.945 0.083 C 6.169 3.349 6 3.664 6 4 v 6 s 3.292 1 7 1 V 4.004 z M 20 10 s -3.75 1 -7 1 v 7 c 3 0 7 -1 7 -1 v -7 z m 7 -1 V 1.974 c -0.096 -0.002 -0.186 -0.013 -0.283 -0.013 c -2.267 0 -4.521 0.442 -6.717 0.911 V 10 s 2.167 -1 7 -1 z M 6.604 23.918 c 1.5 0.648 3.09 0.993 4.82 1.082 H 13 v -7 c -4.167 0 -7 -1 -7 -1 v 6 c 0 0.399 0.237 0.76 0.604 0.918 z M 20 17 v 6.916 c 2.313 -0.499 4.511 -0.955 6.717 -0.955 c 0.097 0 0.187 0.011 0.283 0.013 V 16 c -4.5 0 -7 1 -7 1 z m 7 -1 c 2.676 0 4.82 0.56 6 0.954 V 9.908 C 31.853 9.527 29.769 9 27 9 v 7 z" stroke-linecap="round"/>
</g>
</g>
</g>
</svg>